<svg xmlns="http://www.w3.org/2000/svg" xmlns:xlink="http://www.w3.org/1999/xlink" width="500" zoomAndPan="magnify" viewBox="0 0 375 374.999991" height="500" preserveAspectRatio="xMidYMid meet" version="1.0"><defs><clipPath id="84c1ca4279"><path d="M 25.3125 0 L 245 0 L 245 336 L 25.3125 336 Z M 25.3125 0 " clip-rule="nonzero"/></clipPath></defs><path fill="#2270eb" d="M 185.242188 130.929688 C 170.132812 132 157.878906 144.15625 156.691406 159.261719 C 155.667969 172.285156 162.734375 183.769531 173.394531 189.25 L 173.394531 230.046875 C 173.394531 237.835938 179.710938 244.152344 187.5 244.152344 C 195.289062 244.152344 201.605469 237.835938 201.605469 230.046875 L 201.605469 189.25 C 211.582031 184.121094 218.40625 173.738281 218.40625 161.753906 C 218.40625 143.9375 203.332031 129.640625 185.242188 130.929688 " fill-opacity="1" fill-rule="nonzero"/><path fill="#00bf63" d="M 249.894531 36.238281 L 129.132812 105.484375 L 230.644531 78.023438 L 303.875 120.308594 C 303.875 181.410156 279.550781 238.734375 238.660156 281.890625 C 206.664062 315.65625 150.207031 349.652344 150.207031 349.652344 C 161.949219 358.808594 174.394531 367.214844 187.5 374.78125 C 287.867188 316.835938 349.691406 209.75 349.691406 93.855469 L 249.894531 36.238281 " fill-opacity="1" fill-rule="nonzero"/><g clip-path="url(#84c1ca4279)"><path fill="#2270eb" d="M 150.070312 295 C 100.433594 251.300781 71.121094 187.898438 71.121094 120.308594 L 71.261719 120.226562 L 232.957031 26.460938 L 187.5 0.21875 L 25.308594 93.855469 C 25.308594 186.882812 65.152344 274.230469 132.78125 335.050781 C 132.78125 335.050781 199.738281 300.101562 244.28125 253.484375 L 150.070312 295 " fill-opacity="1" fill-rule="nonzero"/></g></svg>